# xmcd
#
# Track frame offsets:
#	150
#	22572
#	42737
#	61344
#	85147
#	102569
#	119440
#	137491
#	154815
#
# Disc length: 2285 seconds
#
# Revision: 13
# Processed by: cddbd v1.5.2PL0 Copyright (c) Steve Scherf et al.
# Submitted via: Jack! The Knife 18 Bulletproof
#
DISCID=7008eb09
DTITLE=Vasco Rossi - Cosa Succede In Città
DYEAR=1985
DGENRE=Rock
TTITLE0=Cosa c'è
TTITLE1=Domani sì, adesso no
TTITLE2=Cosa succede in città
TTITLE3=Toffee
TTITLE4=Ti taglio la gola
TTITLE5=Una nuova canzone per lei
TTITLE6=T'immagini
TTITLE7=Bolle di sapone
TTITLE8=Dormi, dormi
EXTD=Guido Elmi and Maurizio Biancani
EXTT0=Vasco Rossi
EXTT1=Vasco Rossi
EXTT2=Vasco Rossi
EXTT3=Vasco Rossi
EXTT4=Vasco Rossi
EXTT5=Di Stefano, Sims
EXTT6=Quarantotto, Rossi
EXTT7=Vasco Rossi
EXTT8=Maurizio Solieri
PLAYORDER=
